<?xml version="1.0" standalone="no"?>
<!DOCTYPE svg PUBLIC "-//W3C//DTD SVG 1.1//EN" "http://www.w3.org/Graphics/SVG/1.1/DTD/svg11.dtd" >
<svg xmlns="http://www.w3.org/2000/svg" xmlns:xlink="http://www.w3.org/1999/xlink" version="1.1">
<metadata>
Created by FontForge 20170731 at Fri Dec 13 11:08:56 2013
 By Aleksey,,,
(c) Copyright 2013 Adamarasl. All rights reserved. Fully based on ABChanel Couture font.
</metadata>
<defs>
<font id="Chanel600" horiz-adv-x="810" >
  <font-face 
    font-family="Chanel 600"
    font-weight="600"
    font-stretch="normal"
    units-per-em="1000"
    panose-1="2 11 0 0 0 0 0 0 0 0"
    ascent="750"
    descent="-250"
    x-height="700"
    cap-height="700"
    bbox="0 -250 4680 891"
    underline-thickness="50"
    underline-position="-200"
    unicode-range="U+0020-F002"
  />
<missing-glyph horiz-adv-x="360" 
 />
    <glyph glyph-name=".notdef" horiz-adv-x="360" 
 />
    <glyph glyph-name=".null" horiz-adv-x="0" 
 />
    <glyph glyph-name="nonmarkingreturn" horiz-adv-x="333" 
 />
    <glyph glyph-name="space" unicode=" " horiz-adv-x="360" 
 />
    <glyph glyph-name="exclam" unicode="!" horiz-adv-x="412" 
d="M251 214h-91l-20 183v303h132v-303zM272 0h-132v113h132v-113z" />
    <glyph glyph-name="quotedbl" unicode="&#x22;" horiz-adv-x="514" 
d="M393 472h-83l-20 158v70h124v-70zM203 472h-83l-20 158v70h124v-70z" />
    <glyph glyph-name="numbersign" unicode="#" horiz-adv-x="768" 
d="M658 125h-100v-125h-93v125h-160v-125h-95v125h-100v113h100v224h-100v113h100v125h95v-125h160v125h93v-125h100v-113h-100v-224h100v-113zM305 462v-224h160v224h-160z" />
    <glyph glyph-name="dollar" unicode="$" horiz-adv-x="760" 
d="M380 106q90 0 140 32q36 24 36 62q0 36 -25.5 57.5t-67 29.5t-91 13.5t-99 15t-91 27.5t-67 57.5t-25.5 99.5q0 102 95 159q55 33 135 40v81h102v-81q76 -7 141 -37t107 -76l-104 -60q-68 68 -196 68q-76 0 -118 -24q-38 -22 -38 -60q0 -32 25.5 -50t67 -24.5t91 -11
t99 -15t91 -30t67 -62.5t25.5 -107q0 -111 -104 -169q-60 -34 -154 -40v-81h-102v81q-177 16 -270 129l104 62q41 -45 94.5 -65.5t131.5 -20.5z" />
    <glyph glyph-name="percent" unicode="%" horiz-adv-x="790" 
d="M195 0h-135l535 700h135zM262 503q21 21 21 53t-21 53t-52 21t-52 -21t-21 -53t21 -53t52 -21t52 21zM323 669q47 -46 47 -113t-46.5 -113t-113.5 -46t-113.5 46t-46.5 113t46.5 113t113.5 46t113 -46zM632 91q21 21 21 53t-21 53t-52 21t-52 -21t-21 -53t21 -53t52 -21
t52 21zM693 257q47 -46 47 -113t-46.5 -113t-113.5 -46t-113.5 46t-46.5 113t46.5 113t113.5 46t113 -46z" />
    <glyph glyph-name="ampersand" unicode="&#x26;" horiz-adv-x="899" 
d="M619 310h-234q-91 0 -130 -27q-41 -28 -41 -74q0 -50 46 -80q26 -17 61 -22.5t99 -5.5q130 0 174 47q25 28 25 67v95zM420 -15q-101 0 -154 14.5t-95 45.5q-38 28 -59.5 70.5t-21.5 84.5q0 69 32 110.5t88 69.5q-40 20 -65 56.5t-25 83.5q0 88 72 141.5t183 53.5
q160 0 255 -133l-102 -57q-54 74 -153 74q-63 0 -98 -23.5t-35 -65.5q0 -38 31 -65q32 -27 112 -27h494v-108h-149v-95q0 -112 -85 -171t-225 -59z" />
    <glyph glyph-name="quotesingle" unicode="'" horiz-adv-x="324" 
d="M203 472h-83l-20 158v70h124v-70z" />
    <glyph glyph-name="parenleft" unicode="(" horiz-adv-x="400" 
d="M350 -80h-120q-71 95 -105.5 195t-34.5 235t34.5 235t105.5 195h120q-70 -105 -103 -206t-33 -224t33 -224t103 -206z" />
    <glyph glyph-name="parenright" unicode=")" horiz-adv-x="400" 
d="M50 780h120q71 -95 105.5 -195t34.5 -235t-34.5 -235t-105.5 -195h-120q70 105 103 206t33 224t-33 224t-103 206z" />
    <glyph glyph-name="asterisk" unicode="*" horiz-adv-x="574" 
d="M360 475l87 -110l-81 -59l-79 116l-79 -116l-81 59l87 110l-134 38l31 95l131 -48l-5 140h100l-5 -140l131 48l31 -95z" />
    <glyph glyph-name="comma" unicode="," horiz-adv-x="400" 
d="M280 160v-140q0 -110 -45 -200h-70q35 96 35 180h-80v160h160z" />
    <glyph glyph-name="hyphen" unicode="-" horiz-adv-x="540" 
d="M440 300h-340v118h340v-118z" />
    <glyph glyph-name="period" unicode="." horiz-adv-x="400" 
d="M280 0h-160v160h160v-160z" />
    <glyph glyph-name="slash" unicode="/" horiz-adv-x="705" 
d="M165 -80h-145l480 860h145z" />
    <glyph glyph-name="zero" unicode="0" horiz-adv-x="750" 
d="M253 529q-43 -63 -43 -179t43 -179.5t122 -63.5t122 63.5t43 179.5t-43 179.5t-122 63.5t-122 -64zM585 612q80 -103 80 -262t-80 -262t-210 -103t-210 103t-80 262t80 262t210 103t210 -103z" />
    <glyph glyph-name="one" unicode="1" horiz-adv-x="453" 
d="M195 0v540q-22 -31 -64.5 -53.5t-90.5 -26.5v110q130 13 175 130h108v-700h-128z" />
    <glyph glyph-name="two" unicode="2" horiz-adv-x="670" 
d="M585 490q0 -75 -47 -136t-160 -116q-151 -73 -183 -122h390v-116h-520v27v79q57 136 258 231q78 36 108 73.5t30 79.5q0 48 -37.5 76.5t-95.5 28.5q-63 0 -100.5 -31t-37.5 -94q0 -3 0.5 -8.5t0.5 -8.5h-118q-2 20 -2 30q0 94 66 163t191 69q108 0 182.5 -63t74.5 -162z
" />
    <glyph glyph-name="three" unicode="3" horiz-adv-x="680" 
d="M20 128l102 59q63 -86 183 -86q72 0 116.5 29.5t44.5 78.5q0 47 -42 74t-109 27h-110v108h110q58 0 90.5 26.5t32.5 65.5q0 42 -35 65.5t-98 23.5q-99 0 -153 -74l-102 57q95 133 255 133q111 0 183 -53.5t72 -141.5q0 -47 -25 -83.5t-65 -56.5q56 -28 88 -69.5
t32 -110.5q0 -42 -21.5 -84.5t-59.5 -70.5q-81 -60 -204 -60q-96 0 -168.5 39t-116.5 104z" />
    <glyph glyph-name="four" unicode="4" horiz-adv-x="705" 
d="M640 248v-102h-100v-146h-114v146h-386v92l396 462h104v-452h100zM426 533l-244 -285h244v285z" />
    <glyph glyph-name="five" unicode="5" horiz-adv-x="705" 
d="M345 -15q-91 0 -161.5 41.5t-113.5 111.5l100 58q59 -95 175 -95q69 0 114.5 35t45.5 94t-42.5 94t-107.5 35q-94 0 -165 -55l-90 26l54 370h431v-116h-343l-25 -166q68 53 158 53q102 0 176 -66.5t74 -174.5q0 -104 -81.5 -174.5t-198.5 -70.5z" />
    <glyph glyph-name="six" unicode="6" horiz-adv-x="730" 
d="M90 330q0 173 80.5 279t214.5 106q145 0 245 -125l-101 -59q-59 68 -144 68q-86 0 -134 -73q-40 -59 -47 -159q69 97 191 97q102 0 176 -64.5t74 -169.5q0 -108 -77.5 -176.5t-197.5 -68.5q-121 0 -200.5 87t-79.5 258zM370 101q71 0 113 34.5t42 94.5q0 58 -43.5 90.5
t-106.5 32.5q-70 0 -113.5 -32t-43.5 -81q0 -60 42.5 -99.5t109.5 -39.5z" />
    <glyph glyph-name="seven" unicode="7" horiz-adv-x="560" 
d="M535 700v-106q-118 -118 -188 -257.5t-107 -336.5h-130q39 201 114.5 339t190.5 245h-390v116h510z" />
    <glyph glyph-name="eight" unicode="8" horiz-adv-x="750" 
d="M508 510q0 42 -35 67.5t-98 25.5t-98 -25.5t-35 -67.5q0 -44 36 -69.5t97 -25.5t97 25.5t36 69.5zM171 45q-38 28 -59.5 70.5t-21.5 84.5q0 67 31 109t89 71q-90 60 -90 140q0 86 72.5 140.5t182.5 54.5t182.5 -54.5t72.5 -140.5q0 -80 -90 -140q58 -29 89 -71t31 -109
q0 -42 -21.5 -84.5t-59.5 -70.5q-81 -60 -204 -60t-204 60zM214 205q0 -46 45.5 -77t115.5 -31t115.5 31t45.5 77q0 106 -161 106t-161 -106z" />
    <glyph glyph-name="nine" unicode="9" horiz-adv-x="730" 
d="M640 370q0 -173 -80.5 -279t-214.5 -106q-145 0 -245 125l101 59q59 -68 144 -68q86 0 134 73q40 59 47 159q-69 -97 -191 -97q-102 0 -176 64.5t-74 169.5q0 108 77.5 176.5t197.5 68.5q121 0 200.5 -87t79.5 -258zM360 599q-71 0 -113 -34.5t-42 -94.5
q0 -58 43.5 -90.5t106.5 -32.5q70 0 113.5 32t43.5 81q0 60 -42.5 99.5t-109.5 39.5z" />
    <glyph glyph-name="colon" unicode=":" horiz-adv-x="440" 
d="M300 108h-160v160h160v-160zM300 435h-160v160h160v-160z" />
    <glyph glyph-name="semicolon" unicode=";" horiz-adv-x="440" 
d="M300 435h-160v160h160v-160zM300 268v-140q0 -110 -45 -200h-70q35 96 35 180h-80v160h160z" />
    <glyph glyph-name="equal" unicode="=" horiz-adv-x="750" 
d="M610 420h-470v104h470v-104zM610 206h-470v104h470v-104z" />
    <glyph glyph-name="question" unicode="?" horiz-adv-x="635" 
d="M344 297l-13 -103h-91l-25 196h85q67 0 109 27t42 74q0 49 -44.5 78.5t-116.5 29.5q-106 0 -170 -88l-110 64q44 64 115.5 102t164.5 38q123 0 204 -60q38 -28 59.5 -70.5t21.5 -84.5q0 -79 -57.5 -134t-173.5 -69zM352 0h-132v113h132v-113z" />
    <glyph glyph-name="at" unicode="@" horiz-adv-x="1320" 
d="M902 218l41 -86h-109l-40 86h-248l-40 -86h-109l210 448h126l130 -272q82 0 122 33t40 89q0 117 -98 201t-257 84q-174 0 -282 -99t-108 -266q0 -168 110.5 -266.5t293.5 -98.5q187 0 292 114l90 -52q-148 -157 -382 -157q-220 0 -359.5 129t-139.5 331t135 331t350 129
q96 0 180.5 -31.5t141.5 -84t90 -119.5t33 -138q0 -91 -54.5 -147.5t-158.5 -71.5zM670 485l-84 -177h167z" />
    <glyph glyph-name="A" unicode="A" 
d="M592 147h-374l-59 -147h-139l295 700h180l295 -700h-139zM266 263h278l-139 345z" />
    <glyph glyph-name="B" unicode="B" horiz-adv-x="855" 
d="M636 378q54 -18 88.5 -62t34.5 -107q0 -79 -45 -131q-67 -78 -219 -78h-355v700h355q91 0 147 -32q37 -21 60 -61t23 -87q0 -92 -89 -142zM264 116h231q81 0 112 27q28 23 28 66t-28 66q-31 27 -112 27h-231v-186zM264 418h231q52 0 78 18q32 23 32 65t-32 65
q-26 18 -78 18h-231v-166z" />
    <glyph glyph-name="C" unicode="C" horiz-adv-x="840" 
d="M460 -15q-163 0 -271.5 106.5t-108.5 258.5t108.5 258.5t271.5 106.5q111 0 197 -50.5t138 -134.5l-110 -63q-75 120 -225 120q-111 0 -181.5 -67.5t-70.5 -169.5t70.5 -169.5t181.5 -67.5q150 0 225 120l110 -63q-52 -84 -138 -134.5t-197 -50.5z" />
    <glyph glyph-name="D" unicode="D" horiz-adv-x="895" 
d="M450 576h-182v-452h182q111 0 174 61.5t63 164.5t-63 164.5t-174 61.5zM743 131q-102 -131 -293 -131h-310v700h310q191 0 293 -131q72 -93 72 -219t-72 -219z" />
    <glyph glyph-name="E" unicode="E" horiz-adv-x="790" 
d="M140 0v700h540v-120h-416v-160h356v-120h-356v-180h426v-120h-550z" />
    <glyph glyph-name="F" unicode="F" horiz-adv-x="720" 
d="M610 278h-346v-278h-124v700h530v-122h-406v-178h346v-122z" />
    <glyph glyph-name="G" unicode="G" horiz-adv-x="895" 
d="M460 -15q-163 0 -271.5 106.5t-108.5 258.5t108.5 258.5t271.5 106.5q113 0 195 -46t130 -114l-110 -61q-74 93 -215 93q-114 0 -183 -67t-69 -170q0 -104 69 -172t183 -68q130 0 210 47v99h-240v116h360v-272q-133 -115 -330 -115z" />
    <glyph glyph-name="H" unicode="H" horiz-adv-x="930" 
d="M662 0v300h-394v-300h-128v700h128v-272h394v272h128v-700h-128z" />
    <glyph glyph-name="I" unicode="I" horiz-adv-x="412" 
d="M272 700v-700h-132v700h132z" />
    <glyph glyph-name="J" unicode="J" horiz-adv-x="764" 
d="M623 700v-425q0 -135 -77.5 -212.5t-212.5 -77.5q-112 0 -189.5 54t-113.5 142l114 64q55 -133 189 -133q81 0 119.5 45t38.5 118v425h132z" />
    <glyph glyph-name="K" unicode="K" 
d="M140 700h124v-304l329 304h177l-334 -302l344 -398h-169l-273 322l-74 -65v-257h-124v700z" />
    <glyph glyph-name="L" unicode="L" horiz-adv-x="640" 
d="M264 700v-576h326v-124h-450v700h124z" />
    <glyph glyph-name="M" unicode="M" horiz-adv-x="1102" 
d="M848 600l-242 -600h-110l-242 600v-600h-114v700h188l223 -550l223 550h188v-700h-114v600z" />
    <glyph glyph-name="N" unicode="N" horiz-adv-x="940" 
d="M682 700h118v-700h-108l-434 555v-555h-118v700h154l388 -495v495z" />
    <glyph glyph-name="O" unicode="O" horiz-adv-x="920" 
d="M278 180q71 -67 182 -67t181.5 67.5t70.5 169.5t-70.5 169.5t-181.5 67.5t-181.5 -67.5t-70.5 -169.5t70 -170zM731 91q-108 -106 -271 -106t-271.5 106.5t-108.5 258.5t108.5 258.5t271.5 106.5t271.5 -106.5t108.5 -258.5t-109 -259z" />
    <glyph glyph-name="P" unicode="P" horiz-adv-x="850" 
d="M500 248h-236v-248h-124v700h360q117 0 182 -39q48 -29 73 -79t25 -108t-25 -108t-73 -79q-65 -39 -182 -39zM264 578v-208h236q77 0 109 19q45 27 45 85t-45 85q-32 19 -109 19h-236z" />
    <glyph glyph-name="Q" unicode="Q" horiz-adv-x="920" 
d="M840 350q0 -145 -109 -252l102 -98h-151l-36 35q-86 -47 -186 -47q-163 0 -271.5 105t-108.5 257t108.5 258.5t271.5 106.5t271.5 -106.5t108.5 -258.5zM714 350q0 102 -71 169.5t-183 67.5t-183 -67.5t-71 -169.5q0 -104 70 -174t184 -70q54 0 97 15l-72 71l96 53
l68 -67q65 65 65 172z" />
    <glyph glyph-name="R" unicode="R" horiz-adv-x="875" 
d="M631 0l-195 248h-172v-248h-124v700h350q117 0 182 -39q48 -29 73 -79t25 -108q0 -83 -52 -139.5t-143 -71.5l210 -263h-154zM264 578v-208h226q77 0 109 19q45 27 45 85t-45 85q-32 19 -109 19h-226z" />
    <glyph glyph-name="S" unicode="S" horiz-adv-x="725" 
d="M365 103q91 0 139 33q15 11 26 29t11 35q0 36 -25.5 57.5t-67 29.5t-91 13.5t-99 15t-91 27.5t-67 57.5t-25.5 99.5q0 108 95 168q76 47 185 47q104 0 174 -34t126 -95l-108 -62q-41 41 -84 57t-108 16q-73 0 -117 -25q-39 -25 -39 -62q0 -32 25.5 -50t67 -24.5t91 -11
t99 -15t91 -30t67 -62.5t25.5 -107q0 -50 -28.5 -98.5t-78.5 -78.5q-81 -48 -193 -48q-212 0 -330 145l109 65q44 -48 93.5 -70t127.5 -22z" />
    <glyph glyph-name="T" unicode="T" horiz-adv-x="728" 
d="M678 700v-124h-250v-576h-128v576h-250v124h628z" />
    <glyph glyph-name="U" unicode="U" horiz-adv-x="930" 
d="M242 55q-102 80 -102 225v420h132v-420q0 -78 52 -122q54 -45 141 -45t141 45q52 44 52 122v420h132v-420q0 -145 -102 -225q-89 -70 -223 -70t-223 70z" />
    <glyph glyph-name="V" unicode="V" horiz-adv-x="802" 
d="M782 700l-291 -700h-180l-291 700h141l240 -600l240 600h141z" />
    <glyph glyph-name="W" unicode="W" horiz-adv-x="1224" 
d="M547 700h130l195 -600l185 600h137l-232 -700h-178l-172 530l-172 -530h-178l-232 700h137l185 -600z" />
    <glyph glyph-name="X" unicode="X" horiz-adv-x="760" 
d="M589 0l-209 273l-209 -273h-161l282 368l-255 332h159l184 -241l184 241h159l-255 -332l282 -368h-161z" />
    <glyph glyph-name="Y" unicode="Y" horiz-adv-x="736" 
d="M736 700l-302 -385v-315h-132v315l-302 385h162l206 -265l206 265h162z" />
    <glyph glyph-name="Z" unicode="Z" horiz-adv-x="744" 
d="M666 588l-445 -466h448v-122h-619v112l445 466h-415v122h586v-112z" />
    <glyph glyph-name="bracketleft" unicode="[" horiz-adv-x="400" 
d="M340 710l-120 -10v-700l120 -10v-70h-230v860h230v-70z" />
    <glyph glyph-name="backslash" unicode="\" horiz-adv-x="705" 
d="M685 -80h-145l-480 860h145z" />
    <glyph glyph-name="bracketright" unicode="]" horiz-adv-x="400" 
d="M180 700l-120 10v70h230v-860h-230v70l120 10v700z" />
    <glyph glyph-name="grave" unicode="`" horiz-adv-x="400" 
d="M145 765l-114 121h155l69 -121h-110z" />
    <glyph glyph-name="a" unicode="a" 
d="M592 147h-374l-59 -147h-139l295 700h180l295 -700h-139zM266 263h278l-139 345z" />
    <glyph glyph-name="b" unicode="b" horiz-adv-x="854" 
d="M636 378q54 -18 88.5 -62t34.5 -107q0 -79 -45 -131q-67 -78 -219 -78h-355v700h355q91 0 147 -32q37 -21 60 -61t23 -87q0 -92 -89 -142zM264 116h231q81 0 112 27q28 23 28 66t-28 66q-31 27 -112 27h-231v-186zM264 418h231q52 0 78 18q32 23 32 65t-32 65
q-26 18 -78 18h-231v-166z" />
    <glyph glyph-name="c" unicode="c" horiz-adv-x="840" 
d="M460 -15q-163 0 -271.5 106.5t-108.5 258.5t108.5 258.5t271.5 106.5q111 0 197 -50.5t138 -134.5l-110 -63q-75 120 -225 120q-111 0 -181.5 -67.5t-70.5 -169.5t70.5 -169.5t181.5 -67.5q150 0 225 120l110 -63q-52 -84 -138 -134.5t-197 -50.5z" />
    <glyph glyph-name="d" unicode="d" horiz-adv-x="895" 
d="M450 576h-182v-452h182q111 0 174 61.5t63 164.5t-63 164.5t-174 61.5zM743 131q-102 -131 -293 -131h-310v700h310q191 0 293 -131q72 -93 72 -219t-72 -219z" />
    <glyph glyph-name="e" unicode="e" horiz-adv-x="790" 
d="M140 0v700h540v-120h-416v-160h356v-120h-356v-180h426v-120h-550z" />
    <glyph glyph-name="f" unicode="f" horiz-adv-x="720" 
d="M610 278h-346v-278h-124v700h530v-122h-406v-178h346v-122z" />
    <glyph glyph-name="g" unicode="g" horiz-adv-x="895" 
d="M460 -15q-163 0 -271.5 106.5t-108.5 258.5t108.5 258.5t271.5 106.5q113 0 195 -46t130 -114l-110 -61q-74 93 -215 93q-114 0 -183 -67t-69 -170q0 -104 69 -172t183 -68q130 0 210 47v99h-240v116h360v-272q-133 -115 -330 -115z" />
    <glyph glyph-name="h" unicode="h" horiz-adv-x="930" 
d="M662 0v300h-394v-300h-128v700h128v-272h394v272h128v-700h-128z" />
    <glyph glyph-name="i" unicode="i" horiz-adv-x="412" 
d="M272 700v-700h-132v700h132z" />
    <glyph glyph-name="j" unicode="j" horiz-adv-x="763" 
d="M623 700v-425q0 -135 -77.5 -212.5t-212.5 -77.5q-112 0 -189.5 54t-113.5 142l114 64q55 -133 189 -133q81 0 119.5 45t38.5 118v425h132z" />
    <glyph glyph-name="k" unicode="k" 
d="M140 700h124v-304l329 304h177l-334 -302l344 -398h-169l-273 322l-74 -65v-257h-124v700z" />
    <glyph glyph-name="l" unicode="l" horiz-adv-x="640" 
d="M264 700v-576h326v-124h-450v700h124z" />
    <glyph glyph-name="m" unicode="m" horiz-adv-x="1102" 
d="M848 600l-242 -600h-110l-242 600v-600h-114v700h188l223 -550l223 550h188v-700h-114v600z" />
    <glyph glyph-name="n" unicode="n" horiz-adv-x="940" 
d="M682 700h118v-700h-108l-434 555v-555h-118v700h154l388 -495v495z" />
    <glyph glyph-name="o" unicode="o" horiz-adv-x="920" 
d="M278 180q71 -67 182 -67t181.5 67.5t70.5 169.5t-70.5 169.5t-181.5 67.5t-181.5 -67.5t-70.5 -169.5t70 -170zM731 91q-108 -106 -271 -106t-271.5 106.5t-108.5 258.5t108.5 258.5t271.5 106.5t271.5 -106.5t108.5 -258.5t-109 -259z" />
    <glyph glyph-name="p" unicode="p" horiz-adv-x="850" 
d="M500 248h-236v-248h-124v700h360q117 0 182 -39q48 -29 73 -79t25 -108t-25 -108t-73 -79q-65 -39 -182 -39zM264 578v-208h236q77 0 109 19q45 27 45 85t-45 85q-32 19 -109 19h-236z" />
    <glyph glyph-name="q" unicode="q" horiz-adv-x="920" 
d="M840 350q0 -145 -109 -252l102 -98h-151l-36 35q-86 -47 -186 -47q-163 0 -271.5 105t-108.5 257t108.5 258.5t271.5 106.5t271.5 -106.5t108.5 -258.5zM714 350q0 102 -71 169.5t-183 67.5t-183 -67.5t-71 -169.5q0 -104 70 -174t184 -70q54 0 97 15l-72 71l96 53
l68 -67q65 65 65 172z" />
    <glyph glyph-name="r" unicode="r" horiz-adv-x="875" 
d="M631 0l-195 248h-172v-248h-124v700h350q117 0 182 -39q48 -29 73 -79t25 -108q0 -83 -52 -139.5t-143 -71.5l210 -263h-154zM264 578v-208h226q77 0 109 19q45 27 45 85t-45 85q-32 19 -109 19h-226z" />
    <glyph glyph-name="s" unicode="s" horiz-adv-x="725" 
d="M365 103q91 0 139 33q15 11 26 29t11 35q0 36 -25.5 57.5t-67 29.5t-91 13.5t-99 15t-91 27.5t-67 57.5t-25.5 99.5q0 108 95 168q76 47 185 47q104 0 174 -34t126 -95l-108 -62q-41 41 -84 57t-108 16q-73 0 -117 -25q-39 -25 -39 -62q0 -32 25.5 -50t67 -24.5t91 -11
t99 -15t91 -30t67 -62.5t25.5 -107q0 -50 -28.5 -98.5t-78.5 -78.5q-81 -48 -193 -48q-212 0 -330 145l109 65q44 -48 93.5 -70t127.5 -22z" />
    <glyph glyph-name="t" unicode="t" horiz-adv-x="728" 
d="M678 700v-124h-250v-576h-128v576h-250v124h628z" />
    <glyph glyph-name="u" unicode="u" horiz-adv-x="930" 
d="M242 55q-102 80 -102 225v420h132v-420q0 -78 52 -122q54 -45 141 -45t141 45q52 44 52 122v420h132v-420q0 -145 -102 -225q-89 -70 -223 -70t-223 70z" />
    <glyph glyph-name="v" unicode="v" horiz-adv-x="802" 
d="M782 700l-291 -700h-180l-291 700h141l240 -600l240 600h141z" />
    <glyph glyph-name="w" unicode="w" horiz-adv-x="1224" 
d="M547 700h130l195 -600l185 600h137l-232 -700h-178l-172 530l-172 -530h-178l-232 700h137l185 -600z" />
    <glyph glyph-name="x" unicode="x" horiz-adv-x="760" 
d="M589 0l-209 273l-209 -273h-161l282 368l-255 332h159l184 -241l184 241h159l-255 -332l282 -368h-161z" />
    <glyph glyph-name="y" unicode="y" horiz-adv-x="736" 
d="M736 700l-302 -385v-315h-132v315l-302 385h162l206 -265l206 265h162z" />
    <glyph glyph-name="z" unicode="z" horiz-adv-x="744" 
d="M666 588l-445 -466h448v-122h-619v112l445 466h-415v122h586v-112z" />
    <glyph glyph-name="braceleft" unicode="{" horiz-adv-x="400" 
d="M130 350q66 -21 95.5 -63.5t29.5 -116.5v-20v-18q0 -109 75 -212h-120q-79 92 -79 209q0 17 1 26q1 12 1 33q0 46 -15.5 71t-57.5 31v120q42 6 57.5 31t15.5 71q0 21 -1 33q-1 9 -1 26q0 117 79 209h120q-75 -103 -75 -212v-18v-20q0 -74 -29.5 -116.5t-95.5 -63.5z" />
    <glyph glyph-name="bar" unicode="|" horiz-adv-x="535" 
d="M190 130h-150l265 440h150z" />
    <glyph glyph-name="braceright" unicode="}" horiz-adv-x="400" 
d="M270 350q-66 21 -95.5 63.5t-29.5 116.5v20v18q0 109 -75 212h120q79 -92 79 -209q0 -17 -1 -26q-1 -12 -1 -33q0 -46 15.5 -71t57.5 -31v-120q-42 -6 -57.5 -31t-15.5 -71q0 -21 1 -33q1 -9 1 -26q0 -117 -79 -209h-120q75 103 75 212v18v20q0 74 29.5 116.5t95.5 63.5z
" />
    <glyph glyph-name="uni00A0" unicode="&#xa0;" horiz-adv-x="360" 
 />
    <glyph glyph-name="exclamdown" unicode="&#xa1;" horiz-adv-x="412" 
d="M161 486h91l20 -183v-303h-132v303zM140 700h132v-113h-132v113z" />
    <glyph glyph-name="cent" unicode="&#xa2;" horiz-adv-x="840" 
d="M511 780v-73q187 -22 284 -177l-110 -63q-75 120 -225 120q-111 0 -181.5 -67.5t-70.5 -169.5t70.5 -169.5t181.5 -67.5q150 0 225 120l110 -63q-45 -73 -118 -120t-166 -57v-73h-102v73q-145 16 -237 117t-92 240t92 239.5t237 117.5v73h102z" />
    <glyph glyph-name="sterling" unicode="&#xa3;" horiz-adv-x="665" 
d="M440 228h-145q0 -91 -99 -118h424v-110h-520v100q72 13 72 95q0 15 -3 33h-119v94h112q-12 111 -12 158q0 96 62.5 165.5t169.5 69.5q116 0 177 -69t61 -186h-120q0 135 -118 135q-50 0 -78 -30t-28 -85q0 -47 12 -158h152v-94z" />
    <glyph glyph-name="currency" unicode="&#xa4;" horiz-adv-x="660" 
d="M553 78l-73 72q-68 -50 -150 -50q-83 0 -151 50l-72 -72l-49 49l72 72q-50 68 -50 151q0 82 50 150l-72 73l49 49l72 -73q67 51 151 51q83 0 150 -51l73 73l49 -49l-73 -73q51 -67 51 -150q0 -84 -51 -151l73 -72zM231 451q-40 -40 -40 -101t40.5 -101.5t98.5 -40.5
t98.5 40.5t40.5 101.5t-40.5 101.5t-98.5 40.5t-99 -41z" />
    <glyph glyph-name="yen" unicode="&#xa5;" horiz-adv-x="774" 
d="M753 700l-244 -310h135v-82h-193v-80h193v-82h-193v-146h-124v146h-193v82h193v80h-193v82h135l-244 310h153l211 -272l211 272h153z" />
    <glyph glyph-name="dieresis" unicode="&#xa8;" horiz-adv-x="400" 
d="M161 765h-111v111h111v-111zM350 765h-110v111h110v-111z" />
    <glyph glyph-name="copyright" unicode="&#xa9;" horiz-adv-x="900" 
d="M243 145q80 -80 207 -80t207 80.5t80 204.5t-80 204.5t-207 80.5t-207 -80.5t-80 -204.5t80 -205zM715 87q-105 -107 -265 -107t-265 107t-105 263t105 263t265 107t265 -107t105 -263t-105 -263zM450 140q-94 0 -157 61t-63 149t63 149t157 61q64 0 113.5 -29t78.5 -77
l-87 -50q-36 57 -105 57q-52 0 -86 -31.5t-34 -79.5t34 -79.5t86 -31.5q69 0 105 57l87 -50q-29 -48 -78.5 -77t-113.5 -29z" />
    <glyph glyph-name="guillemotleft" unicode="&#xab;" horiz-adv-x="661" 
d="M521 66l-181 236v116l181 236v-170l-94 -124l94 -124v-170zM291 66l-181 236v116l181 236v-170l-94 -124l94 -124v-170z" />
    <glyph glyph-name="uni00AD" unicode="&#xad;" horiz-adv-x="540" 
d="M440 300h-340v118h340v-118z" />
    <glyph glyph-name="registered" unicode="&#xae;" horiz-adv-x="590" 
d="M423 625q-47 47 -128 47t-128 -47t-47 -120t47 -120t128 -47t128 47t47 120t-47 120zM464 345q-66 -65 -169 -65t-169 65t-66 160t66 160t169 65t169 -65t66 -160t-66 -160zM345 400l-61 74h-30v-74h-49v210h103q38 0 58 -12q31 -20 31 -56q0 -24 -16 -41t-43 -22l66 -79
h-59zM254 568v-52h54q37 0 37 26t-37 26h-54z" />
    <glyph glyph-name="degree" unicode="&#xb0;" horiz-adv-x="410" 
d="M300 479q-39 -39 -95 -39t-95.5 39.5t-39.5 95.5t39.5 95.5t95.5 39.5t95.5 -39.5t39.5 -95.5t-40 -96zM205 640q-27 0 -46 -18.5t-19 -46.5t18.5 -46.5t46.5 -18.5t46.5 18.5t18.5 46.5t-18.5 46.5t-46.5 18.5z" />
    <glyph glyph-name="acute" unicode="&#xb4;" horiz-adv-x="400" 
d="M369 886l-114 -121h-110l69 121h155z" />
    <glyph glyph-name="paragraph" unicode="&#xb6;" horiz-adv-x="855" 
d="M755 0h-285q-176 0 -283 96q-107 98 -107 254t107 254q107 96 283 96h285v-108h-80v-484h80v-108zM549 592h-79q-165 0 -165 -242t165 -242h79v484z" />
    <glyph glyph-name="periodcentered" unicode="&#xb7;" horiz-adv-x="474" 
d="M334 267h-194v192h194v-192z" />
    <glyph glyph-name="cedilla" unicode="&#xb8;" horiz-adv-x="400" 
d="M293 -150q0 -43 -28 -71.5t-75 -28.5q-16 0 -31 2.5t-22 5.5l-7 2v89q25 -18 60 -18q15 0 24 9t9 22q0 42 -93 48l27 50q67 -7 101.5 -36.5t34.5 -73.5z" />
    <glyph glyph-name="guillemotright" unicode="&#xbb;" horiz-adv-x="661" 
d="M551 302l-181 -236v170l94 124l-94 124v170l181 -236v-116zM321 302l-181 -236v170l94 124l-94 124v170l181 -236v-116z" />
    <glyph glyph-name="questiondown" unicode="&#xbf;" horiz-adv-x="635" 
d="M291 403l13 103h91l25 -196h-85q-67 0 -109 -27t-42 -74q0 -49 44.5 -78.5t116.5 -29.5q106 0 170 88l110 -64q-44 -64 -115.5 -102t-164.5 -38q-123 0 -204 60q-38 28 -59.5 70.5t-21.5 84.5q0 79 57.5 134t173.5 69zM283 700h132v-113h-132v113z" />
    <glyph glyph-name="Agrave" unicode="&#xc0;" 
d="M345 765l-114 121h155l69 -121h-110zM266 263h278l-139 345zM592 147h-374l-59 -147h-139l295 700h180l295 -700h-139z" />
    <glyph glyph-name="Aacute" unicode="&#xc1;" 
d="M569 886l-114 -121h-110l69 121h155zM266 263h278l-139 345zM592 147h-374l-59 -147h-139l295 700h180l295 -700h-139z" />
    <glyph glyph-name="Acircumflex" unicode="&#xc2;" 
d="M470 886l134 -121h-134l-70 71l-70 -71h-134l134 121h140zM266 263h278l-139 345zM592 147h-374l-59 -147h-139l295 700h180l295 -700h-139z" />
    <glyph glyph-name="Atilde" unicode="&#xc3;" 
d="M498 886h77q-4 -64 -32.5 -95t-72.5 -31q-31 0 -79.5 28.5t-60.5 28.5q-23 0 -28 -52h-77q4 64 32.5 95t72.5 31q31 0 79.5 -28.5t60.5 -28.5q23 0 28 52zM266 263h278l-139 345zM592 147h-374l-59 -147h-139l295 700h180l295 -700h-139z" />
    <glyph glyph-name="Adieresis" unicode="&#xc4;" 
d="M550 765h-110v111h110v-111zM361 765h-111v111h111v-111zM266 263h278l-139 345zM592 147h-374l-59 -147h-139l295 700h180l295 -700h-139z" />
    <glyph glyph-name="Aring" unicode="&#xc5;" 
d="M159 0h-139l282 670q-32 35 -32 76q0 59 39 97t96 38t96 -38t39 -97q0 -41 -32 -76l282 -670h-139l-59 147h-374zM266 263h278l-139 345zM452 792q-18 19 -47 19t-47 -19t-18 -46t18 -46t47 -19t47 19t18 46t-18 46z" />
    <glyph glyph-name="AE" unicode="&#xc6;" horiz-adv-x="1150" 
d="M592 147h-374l-59 -147h-139l295 700h725v-120h-499l67 -160h372v-120h-322l75 -180h317v-120h-399zM266 263h278l-139 345z" />
    <glyph glyph-name="Ccedilla" unicode="&#xc7;" horiz-adv-x="840" 
d="M543 -150q0 -43 -28 -71.5t-75 -28.5q-16 0 -31 2.5t-22 5.5l-7 2v89q25 -18 60 -18q15 0 24 9t9 22q0 42 -93 48l27 50q67 -7 101.5 -36.5t34.5 -73.5zM460 -15q-163 0 -271.5 106.5t-108.5 258.5t108.5 258.5t271.5 106.5q111 0 197 -50.5t138 -134.5l-110 -63
q-75 120 -225 120q-111 0 -181.5 -67.5t-70.5 -169.5t70.5 -169.5t181.5 -67.5q150 0 225 120l110 -63q-52 -84 -138 -134.5t-197 -50.5z" />
    <glyph glyph-name="Egrave" unicode="&#xc8;" horiz-adv-x="790" 
d="M355 765l-114 121h155l69 -121h-110zM140 0v700h540v-120h-416v-160h356v-120h-356v-180h426v-120h-550z" />
    <glyph glyph-name="Eacute" unicode="&#xc9;" horiz-adv-x="790" 
d="M579 886l-114 -121h-110l69 121h155zM140 0v700h540v-120h-416v-160h356v-120h-356v-180h426v-120h-550z" />
    <glyph glyph-name="Ecircumflex" unicode="&#xca;" horiz-adv-x="790" 
d="M480 886l134 -121h-134l-70 71l-70 -71h-134l134 121h140zM140 0v700h540v-120h-416v-160h356v-120h-356v-180h426v-120h-550z" />
    <glyph glyph-name="Edieresis" unicode="&#xcb;" horiz-adv-x="790" 
d="M560 765h-110v111h110v-111zM371 765h-111v111h111v-111zM140 0v700h540v-120h-416v-160h356v-120h-356v-180h426v-120h-550z" />
    <glyph glyph-name="Igrave" unicode="&#xcc;" horiz-adv-x="412" 
d="M151 765l-114 121h155l69 -121h-110zM272 700v-700h-132v700h132z" />
    <glyph glyph-name="Iacute" unicode="&#xcd;" horiz-adv-x="412" 
d="M375 886l-114 -121h-110l69 121h155zM272 700v-700h-132v700h132z" />
    <glyph glyph-name="Icircumflex" unicode="&#xce;" horiz-adv-x="412" 
d="M276 886l134 -121h-134l-70 71l-70 -71h-134l134 121h140zM272 700v-700h-132v700h132z" />
    <glyph glyph-name="Idieresis" unicode="&#xcf;" horiz-adv-x="412" 
d="M356 765h-110v111h110v-111zM167 765h-111v111h111v-111zM272 700v-700h-132v700h132z" />
    <glyph glyph-name="Eth" unicode="&#xd0;" horiz-adv-x="895" 
d="M743 131q-102 -131 -293 -131h-310v294h-90v94h90v312h310q191 0 293 -131q72 -93 72 -219t-72 -219zM420 294h-152v-170h182q111 0 174 61.5t63 164.5t-63 164.5t-174 61.5h-182v-188h152v-94z" />
    <glyph glyph-name="Ntilde" unicode="&#xd1;" horiz-adv-x="940" 
d="M558 886h77q-4 -64 -32.5 -95t-72.5 -31q-31 0 -79.5 28.5t-60.5 28.5q-23 0 -28 -52h-77q4 64 32.5 95t72.5 31q31 0 79.5 -28.5t60.5 -28.5q23 0 28 52zM682 700h118v-700h-108l-434 555v-555h-118v700h154l388 -495v495z" />
    <glyph glyph-name="Ograve" unicode="&#xd2;" horiz-adv-x="920" 
d="M405 765l-114 121h155l69 -121h-110zM731 91q-108 -106 -271 -106t-271.5 106.5t-108.5 258.5t108.5 258.5t271.5 106.5t271.5 -106.5t108.5 -258.5t-109 -259zM278 180q71 -67 182 -67t181.5 67.5t70.5 169.5t-70.5 169.5t-181.5 67.5t-181.5 -67.5t-70.5 -169.5
t70 -170z" />
    <glyph glyph-name="Oacute" unicode="&#xd3;" horiz-adv-x="920" 
d="M629 886l-114 -121h-110l69 121h155zM731 91q-108 -106 -271 -106t-271.5 106.5t-108.5 258.5t108.5 258.5t271.5 106.5t271.5 -106.5t108.5 -258.5t-109 -259zM278 180q71 -67 182 -67t181.5 67.5t70.5 169.5t-70.5 169.5t-181.5 67.5t-181.5 -67.5t-70.5 -169.5
t70 -170z" />
    <glyph glyph-name="Ocircumflex" unicode="&#xd4;" horiz-adv-x="920" 
d="M530 886l134 -121h-134l-70 71l-70 -71h-134l134 121h140zM731 91q-108 -106 -271 -106t-271.5 106.5t-108.5 258.5t108.5 258.5t271.5 106.5t271.5 -106.5t108.5 -258.5t-109 -259zM278 180q71 -67 182 -67t181.5 67.5t70.5 169.5t-70.5 169.5t-181.5 67.5t-181.5 -67.5
t-70.5 -169.5t70 -170z" />
    <glyph glyph-name="Otilde" unicode="&#xd5;" horiz-adv-x="920" 
d="M558 886h77q-4 -64 -32.5 -95t-72.5 -31q-31 0 -79.5 28.5t-60.5 28.5q-23 0 -28 -52h-77q4 64 32.5 95t72.5 31q31 0 79.5 -28.5t60.5 -28.5q23 0 28 52zM731 91q-108 -106 -271 -106t-271.5 106.5t-108.5 258.5t108.5 258.5t271.5 106.5t271.5 -106.5t108.5 -258.5
t-109 -259zM278 180q71 -67 182 -67t181.5 67.5t70.5 169.5t-70.5 169.5t-181.5 67.5t-181.5 -67.5t-70.5 -169.5t70 -170z" />
    <glyph glyph-name="Odieresis" unicode="&#xd6;" horiz-adv-x="920" 
d="M610 765h-110v111h110v-111zM421 765h-111v111h111v-111zM731 91q-108 -106 -271 -106t-271.5 106.5t-108.5 258.5t108.5 258.5t271.5 106.5t271.5 -106.5t108.5 -258.5t-109 -259zM278 180q71 -67 182 -67t181.5 67.5t70.5 169.5t-70.5 169.5t-181.5 67.5t-181.5 -67.5
t-70.5 -169.5t70 -170z" />
    <glyph glyph-name="Oslash" unicode="&#xd8;" horiz-adv-x="920" 
d="M272 177l291 399q-54 19 -103 19q-111 0 -183.5 -71t-72.5 -174q0 -107 68 -173zM840 350q0 -152 -108.5 -258.5t-271.5 -106.5q-91 0 -175 41l-62 -86h-123l103 142q-123 110 -123 268q0 152 108.5 258.5t271.5 106.5q91 0 175 -41l62 86h123l-103 -142
q123 -110 123 -268zM648 523l-291 -399q54 -19 103 -19q111 0 183.5 71t72.5 174q0 107 -68 173z" />
    <glyph glyph-name="Ugrave" unicode="&#xd9;" horiz-adv-x="930" 
d="M410 765l-114 121h155l69 -121h-110zM242 55q-102 80 -102 225v420h132v-420q0 -78 52 -122q54 -45 141 -45t141 45q52 44 52 122v420h132v-420q0 -145 -102 -225q-89 -70 -223 -70t-223 70z" />
    <glyph glyph-name="Uacute" unicode="&#xda;" horiz-adv-x="930" 
d="M634 886l-114 -121h-110l69 121h155zM242 55q-102 80 -102 225v420h132v-420q0 -78 52 -122q54 -45 141 -45t141 45q52 44 52 122v420h132v-420q0 -145 -102 -225q-89 -70 -223 -70t-223 70z" />
    <glyph glyph-name="Ucircumflex" unicode="&#xdb;" horiz-adv-x="930" 
d="M535 886l134 -121h-134l-70 71l-70 -71h-134l134 121h140zM242 55q-102 80 -102 225v420h132v-420q0 -78 52 -122q54 -45 141 -45t141 45q52 44 52 122v420h132v-420q0 -145 -102 -225q-89 -70 -223 -70t-223 70z" />
    <glyph glyph-name="Udieresis" unicode="&#xdc;" horiz-adv-x="930" 
d="M615 765h-110v111h110v-111zM426 765h-111v111h111v-111zM242 55q-102 80 -102 225v420h132v-420q0 -78 52 -122q54 -45 141 -45t141 45q52 44 52 122v420h132v-420q0 -145 -102 -225q-89 -70 -223 -70t-223 70z" />
    <glyph glyph-name="Yacute" unicode="&#xdd;" horiz-adv-x="736" 
d="M537 886l-114 -121h-110l69 121h155zM736 700l-302 -385v-315h-132v315l-302 385h162l206 -265l206 265h162z" />
    <glyph glyph-name="Thorn" unicode="&#xde;" horiz-adv-x="850" 
d="M264 700v-120h236q117 0 182 -39q48 -29 73 -79t25 -108t-25 -108t-73 -79q-65 -39 -182 -39h-236v-128h-124v700h124zM264 458v-208h236q77 0 109 19q45 27 45 85t-45 85q-32 19 -109 19h-236z" />
    <glyph glyph-name="germandbls" unicode="&#xdf;" horiz-adv-x="1450" 
d="M1090 103q91 0 139 33q15 11 26 29t11 35q0 36 -25.5 57.5t-67 29.5t-91 13.5t-99 15t-91 27.5t-67 57.5t-25.5 99.5q0 108 95 168q76 47 185 47q104 0 174 -34t126 -95l-108 -62q-41 41 -84 57t-108 16q-73 0 -117 -25q-39 -25 -39 -62q0 -32 25.5 -50t67 -24.5t91 -11
t99 -15t91 -30t67 -62.5t25.5 -107q0 -50 -28.5 -98.5t-78.5 -78.5q-81 -48 -193 -48q-212 0 -330 145l109 65q44 -48 93.5 -70t127.5 -22zM365 103q91 0 139 33q15 11 26 29t11 35q0 36 -25.5 57.5t-67 29.5t-91 13.5t-99 15t-91 27.5t-67 57.5t-25.5 99.5q0 108 95 168
q76 47 185 47q104 0 174 -34t126 -95l-108 -62q-41 41 -84 57t-108 16q-73 0 -117 -25q-39 -25 -39 -62q0 -32 25.5 -50t67 -24.5t91 -11t99 -15t91 -30t67 -62.5t25.5 -107q0 -50 -28.5 -98.5t-78.5 -78.5q-81 -48 -193 -48q-212 0 -330 145l109 65q44 -48 93.5 -70
t127.5 -22z" />
    <glyph glyph-name="agrave" unicode="&#xe0;" 
d="M345 765l-114 121h155l69 -121h-110zM266 263h278l-139 345zM592 147h-374l-59 -147h-139l295 700h180l295 -700h-139z" />
    <glyph glyph-name="aacute" unicode="&#xe1;" 
d="M569 886l-114 -121h-110l69 121h155zM266 263h278l-139 345zM592 147h-374l-59 -147h-139l295 700h180l295 -700h-139z" />
    <glyph glyph-name="acircumflex" unicode="&#xe2;" 
d="M470 886l134 -121h-134l-70 71l-70 -71h-134l134 121h140zM266 263h278l-139 345zM592 147h-374l-59 -147h-139l295 700h180l295 -700h-139z" />
    <glyph glyph-name="atilde" unicode="&#xe3;" 
d="M498 886h77q-4 -64 -32.5 -95t-72.5 -31q-31 0 -79.5 28.5t-60.5 28.5q-23 0 -28 -52h-77q4 64 32.5 95t72.5 31q31 0 79.5 -28.5t60.5 -28.5q23 0 28 52zM266 263h278l-139 345zM592 147h-374l-59 -147h-139l295 700h180l295 -700h-139z" />
    <glyph glyph-name="adieresis" unicode="&#xe4;" 
d="M550 765h-110v111h110v-111zM361 765h-111v111h111v-111zM266 263h278l-139 345zM592 147h-374l-59 -147h-139l295 700h180l295 -700h-139z" />
    <glyph glyph-name="aring" unicode="&#xe5;" 
d="M159 0h-139l282 670q-32 35 -32 76q0 59 39 97t96 38t96 -38t39 -97q0 -41 -32 -76l282 -670h-139l-59 147h-374zM266 263h278l-139 345zM452 792q-18 19 -47 19t-47 -19t-18 -46t18 -46t47 -19t47 19t18 46t-18 46z" />
    <glyph glyph-name="ae" unicode="&#xe6;" horiz-adv-x="1150" 
d="M592 147h-374l-59 -147h-139l295 700h725v-120h-499l67 -160h372v-120h-322l75 -180h317v-120h-399zM266 263h278l-139 345z" />
    <glyph glyph-name="ccedilla" unicode="&#xe7;" horiz-adv-x="840" 
d="M543 -150q0 -43 -28 -71.5t-75 -28.5q-16 0 -31 2.5t-22 5.5l-7 2v89q25 -18 60 -18q15 0 24 9t9 22q0 42 -93 48l27 50q67 -7 101.5 -36.5t34.5 -73.5zM460 -15q-163 0 -271.5 106.5t-108.5 258.5t108.5 258.5t271.5 106.5q111 0 197 -50.5t138 -134.5l-110 -63
q-75 120 -225 120q-111 0 -181.5 -67.5t-70.5 -169.5t70.5 -169.5t181.5 -67.5q150 0 225 120l110 -63q-52 -84 -138 -134.5t-197 -50.5z" />
    <glyph glyph-name="egrave" unicode="&#xe8;" horiz-adv-x="790" 
d="M355 765l-114 121h155l69 -121h-110zM140 0v700h540v-120h-416v-160h356v-120h-356v-180h426v-120h-550z" />
    <glyph glyph-name="eacute" unicode="&#xe9;" horiz-adv-x="790" 
d="M579 886l-114 -121h-110l69 121h155zM140 0v700h540v-120h-416v-160h356v-120h-356v-180h426v-120h-550z" />
    <glyph glyph-name="ecircumflex" unicode="&#xea;" horiz-adv-x="790" 
d="M480 886l134 -121h-134l-70 71l-70 -71h-134l134 121h140zM140 0v700h540v-120h-416v-160h356v-120h-356v-180h426v-120h-550z" />
    <glyph glyph-name="edieresis" unicode="&#xeb;" horiz-adv-x="790" 
d="M560 765h-110v111h110v-111zM371 765h-111v111h111v-111zM140 0v700h540v-120h-416v-160h356v-120h-356v-180h426v-120h-550z" />
    <glyph glyph-name="igrave" unicode="&#xec;" horiz-adv-x="412" 
d="M151 765l-114 121h155l69 -121h-110zM272 700v-700h-132v700h132z" />
    <glyph glyph-name="iacute" unicode="&#xed;" horiz-adv-x="412" 
d="M375 886l-114 -121h-110l69 121h155zM272 700v-700h-132v700h132z" />
    <glyph glyph-name="icircumflex" unicode="&#xee;" horiz-adv-x="412" 
d="M276 886l134 -121h-134l-70 71l-70 -71h-134l134 121h140zM272 700v-700h-132v700h132z" />
    <glyph glyph-name="idieresis" unicode="&#xef;" horiz-adv-x="412" 
d="M356 765h-110v111h110v-111zM167 765h-111v111h111v-111zM272 700v-700h-132v700h132z" />
    <glyph glyph-name="eth" unicode="&#xf0;" horiz-adv-x="895" 
d="M743 131q-102 -131 -293 -131h-310v294h-90v94h90v312h310q191 0 293 -131q72 -93 72 -219t-72 -219zM420 294h-152v-170h182q111 0 174 61.5t63 164.5t-63 164.5t-174 61.5h-182v-188h152v-94z" />
    <glyph glyph-name="ntilde" unicode="&#xf1;" horiz-adv-x="940" 
d="M558 886h77q-4 -64 -32.5 -95t-72.5 -31q-31 0 -79.5 28.5t-60.5 28.5q-23 0 -28 -52h-77q4 64 32.5 95t72.5 31q31 0 79.5 -28.5t60.5 -28.5q23 0 28 52zM682 700h118v-700h-108l-434 555v-555h-118v700h154l388 -495v495z" />
    <glyph glyph-name="ograve" unicode="&#xf2;" horiz-adv-x="920" 
d="M405 765l-114 121h155l69 -121h-110zM731 91q-108 -106 -271 -106t-271.5 106.5t-108.5 258.5t108.5 258.5t271.5 106.5t271.5 -106.5t108.5 -258.5t-109 -259zM278 180q71 -67 182 -67t181.5 67.5t70.5 169.5t-70.5 169.5t-181.5 67.5t-181.5 -67.5t-70.5 -169.5
t70 -170z" />
    <glyph glyph-name="oacute" unicode="&#xf3;" horiz-adv-x="920" 
d="M629 886l-114 -121h-110l69 121h155zM731 91q-108 -106 -271 -106t-271.5 106.5t-108.5 258.5t108.5 258.5t271.5 106.5t271.5 -106.5t108.5 -258.5t-109 -259zM278 180q71 -67 182 -67t181.5 67.5t70.5 169.5t-70.5 169.5t-181.5 67.5t-181.5 -67.5t-70.5 -169.5
t70 -170z" />
    <glyph glyph-name="ocircumflex" unicode="&#xf4;" horiz-adv-x="920" 
d="M530 886l134 -121h-134l-70 71l-70 -71h-134l134 121h140zM731 91q-108 -106 -271 -106t-271.5 106.5t-108.5 258.5t108.5 258.5t271.5 106.5t271.5 -106.5t108.5 -258.5t-109 -259zM278 180q71 -67 182 -67t181.5 67.5t70.5 169.5t-70.5 169.5t-181.5 67.5t-181.5 -67.5
t-70.5 -169.5t70 -170z" />
    <glyph glyph-name="otilde" unicode="&#xf5;" horiz-adv-x="920" 
d="M558 886h77q-4 -64 -32.5 -95t-72.5 -31q-31 0 -79.5 28.5t-60.5 28.5q-23 0 -28 -52h-77q4 64 32.5 95t72.5 31q31 0 79.5 -28.5t60.5 -28.5q23 0 28 52zM731 91q-108 -106 -271 -106t-271.5 106.5t-108.5 258.5t108.5 258.5t271.5 106.5t271.5 -106.5t108.5 -258.5
t-109 -259zM278 180q71 -67 182 -67t181.5 67.5t70.5 169.5t-70.5 169.5t-181.5 67.5t-181.5 -67.5t-70.5 -169.5t70 -170z" />
    <glyph glyph-name="odieresis" unicode="&#xf6;" horiz-adv-x="920" 
d="M610 765h-110v111h110v-111zM421 765h-111v111h111v-111zM731 91q-108 -106 -271 -106t-271.5 106.5t-108.5 258.5t108.5 258.5t271.5 106.5t271.5 -106.5t108.5 -258.5t-109 -259zM278 180q71 -67 182 -67t181.5 67.5t70.5 169.5t-70.5 169.5t-181.5 67.5t-181.5 -67.5
t-70.5 -169.5t70 -170z" />
    <glyph glyph-name="oslash" unicode="&#xf8;" horiz-adv-x="920" 
d="M272 177l291 399q-54 19 -103 19q-111 0 -183.5 -71t-72.5 -174q0 -107 68 -173zM840 350q0 -152 -108.5 -258.5t-271.5 -106.5q-91 0 -175 41l-62 -86h-123l103 142q-123 110 -123 268q0 152 108.5 258.5t271.5 106.5q91 0 175 -41l62 86h123l-103 -142
q123 -110 123 -268zM648 523l-291 -399q54 -19 103 -19q111 0 183.5 71t72.5 174q0 107 -68 173z" />
    <glyph glyph-name="ugrave" unicode="&#xf9;" horiz-adv-x="930" 
d="M410 765l-114 121h155l69 -121h-110zM242 55q-102 80 -102 225v420h132v-420q0 -78 52 -122q54 -45 141 -45t141 45q52 44 52 122v420h132v-420q0 -145 -102 -225q-89 -70 -223 -70t-223 70z" />
    <glyph glyph-name="uacute" unicode="&#xfa;" horiz-adv-x="930" 
d="M634 886l-114 -121h-110l69 121h155zM242 55q-102 80 -102 225v420h132v-420q0 -78 52 -122q54 -45 141 -45t141 45q52 44 52 122v420h132v-420q0 -145 -102 -225q-89 -70 -223 -70t-223 70z" />
    <glyph glyph-name="ucircumflex" unicode="&#xfb;" horiz-adv-x="930" 
d="M535 886l134 -121h-134l-70 71l-70 -71h-134l134 121h140zM242 55q-102 80 -102 225v420h132v-420q0 -78 52 -122q54 -45 141 -45t141 45q52 44 52 122v420h132v-420q0 -145 -102 -225q-89 -70 -223 -70t-223 70z" />
    <glyph glyph-name="udieresis" unicode="&#xfc;" horiz-adv-x="930" 
d="M615 765h-110v111h110v-111zM426 765h-111v111h111v-111zM242 55q-102 80 -102 225v420h132v-420q0 -78 52 -122q54 -45 141 -45t141 45q52 44 52 122v420h132v-420q0 -145 -102 -225q-89 -70 -223 -70t-223 70z" />
    <glyph glyph-name="yacute" unicode="&#xfd;" horiz-adv-x="736" 
d="M537 886l-114 -121h-110l69 121h155zM736 700l-302 -385v-315h-132v315l-302 385h162l206 -265l206 265h162z" />
    <glyph glyph-name="thorn" unicode="&#xfe;" horiz-adv-x="850" 
d="M264 700v-120h236q117 0 182 -39q48 -29 73 -79t25 -108t-25 -108t-73 -79q-65 -39 -182 -39h-236v-128h-124v700h124zM264 458v-208h236q77 0 109 19q45 27 45 85t-45 85q-32 19 -109 19h-236z" />
    <glyph glyph-name="ydieresis" unicode="&#xff;" horiz-adv-x="736" 
d="M512 765h-110v111h110v-111zM323 765h-111v111h111v-111zM736 700l-302 -385v-315h-132v315l-302 385h162l206 -265l206 265h162z" />
    <glyph glyph-name="OE" unicode="&#x152;" horiz-adv-x="1210" 
d="M600 123v454q-65 17 -140 17q-111 0 -181.5 -70.5t-70.5 -173.5t70.5 -173.5t181.5 -70.5q33 0 68 4t54 8zM600 700h500v-120h-378v-160h318v-120h-318v-180h388v-120h-510q-70 -15 -140 -15q-163 0 -271.5 106.5t-108.5 258.5t108.5 258.5t271.5 106.5q31 0 66 -3.5
t54 -7.5z" />
    <glyph glyph-name="oe" unicode="&#x153;" horiz-adv-x="1210" 
d="M600 123v454q-65 17 -140 17q-111 0 -181.5 -70.5t-70.5 -173.5t70.5 -173.5t181.5 -70.5q33 0 68 4t54 8zM600 700h500v-120h-378v-160h318v-120h-318v-180h388v-120h-510q-70 -15 -140 -15q-163 0 -271.5 106.5t-108.5 258.5t108.5 258.5t271.5 106.5q31 0 66 -3.5
t54 -7.5z" />
    <glyph glyph-name="Ydieresis" unicode="&#x178;" horiz-adv-x="736" 
d="M512 765h-110v111h110v-111zM323 765h-111v111h111v-111zM736 700l-302 -385v-315h-132v315l-302 385h162l206 -265l206 265h162z" />
    <glyph glyph-name="tilde" unicode="&#x2dc;" horiz-adv-x="400" 
d="M298 886h77q-4 -64 -32.5 -95t-72.5 -31q-31 0 -79.5 28.5t-60.5 28.5q-23 0 -28 -52h-77q4 64 32.5 95t72.5 31q31 0 79.5 -28.5t60.5 -28.5q23 0 28 52z" />
    <glyph glyph-name="endash" unicode="&#x2013;" horiz-adv-x="780" 
d="M640 300h-500v116h500v-116z" />
    <glyph glyph-name="emdash" unicode="&#x2014;" horiz-adv-x="1030" 
d="M890 300h-750v116h750v-116z" />
    <glyph glyph-name="quoteleft" unicode="&#x2018;" horiz-adv-x="350" 
d="M100 380v130q0 100 45 190h70q-35 -96 -35 -170h70v-150h-150z" />
    <glyph glyph-name="quoteright" unicode="&#x2019;" horiz-adv-x="350" 
d="M250 700v-130q0 -100 -45 -190h-70q35 96 35 170h-70v150h150z" />
    <glyph glyph-name="quotedblleft" unicode="&#x201c;" horiz-adv-x="580" 
d="M100 380v130q0 100 45 190h70q-35 -96 -35 -170h70v-150h-150zM330 380v130q0 100 45 190h70q-35 -96 -35 -170h70v-150h-150z" />
    <glyph glyph-name="quotedblright" unicode="&#x201d;" horiz-adv-x="580" 
d="M480 700v-130q0 -100 -45 -190h-70q35 96 35 170h-70v150h150zM250 700v-130q0 -100 -45 -190h-70q35 96 35 170h-70v150h150z" />
    <glyph glyph-name="quotedblbase" unicode="&#x201e;" horiz-adv-x="580" 
d="M480 150v-130q0 -100 -45 -190h-70q35 96 35 170h-70v150h150zM250 150v-130q0 -100 -45 -190h-70q35 96 35 170h-70v150h150z" />
    <glyph glyph-name="bullet" unicode="&#x2022;" horiz-adv-x="560" 
d="M420 222h-280v282h280v-282z" />
    <glyph glyph-name="ellipsis" unicode="&#x2026;" horiz-adv-x="1200" 
d="M1080 0h-160v160h160v-160zM680 0h-160v160h160v-160zM280 0h-160v160h160v-160z" />
    <glyph glyph-name="guilsinglleft" unicode="&#x2039;" horiz-adv-x="431" 
d="M291 66l-181 236v116l181 236v-170l-94 -124l94 -124v-170z" />
    <glyph glyph-name="guilsinglright" unicode="&#x203a;" horiz-adv-x="431" 
d="M321 302l-181 -236v170l94 124l-94 124v170l181 -236v-116z" />
    <glyph glyph-name="Euro" unicode="&#x20ac;" horiz-adv-x="915" 
d="M520 -15q-124 0 -218 67.5t-132 175.5h-100v84h87q-2 13 -2 38l2 38h-87v84h100q38 108 132 175.5t218 67.5q112 0 198.5 -53t136.5 -132l-104 -60q-83 125 -231 125q-158 0 -220 -123h250v-84h-269q-2 -13 -2 -38l2 -38h269v-84h-250q61 -123 220 -123q148 0 231 125
l104 -60q-50 -79 -136.5 -132t-198.5 -53z" />
    <glyph glyph-name="trademark" unicode="&#x2122;" horiz-adv-x="1036" 
d="M170 310v310h-130v80h344v-80h-130v-310h-84zM858 620l-117 -310h-74l-117 310v-310h-78v390h125l107 -285l107 285h125v-390h-78v310z" />
    <glyph glyph-name="uniF000" unicode="&#xf000;" horiz-adv-x="822" 
d="M411 715q75 0 141.5 -29t116 -78.5t78.5 -116t29 -141.5t-29 -141.5t-78.5 -116t-116 -78.5t-141.5 -29t-141.5 29t-116 78.5t-78.5 116t-29 141.5t29 141.5t78.5 116t116 78.5t141.5 29zM411 703q-73 0 -137.5 -28t-112.5 -76t-75.5 -112t-27.5 -137t27.5 -137
t75.5 -112t112.5 -76t137.5 -28t137 28t112 76t75.5 112t27.5 137t-27.5 137t-75.5 112t-112 76t-137 28zM411 186q-42 -25 -93 -25q-52 0 -95 26t-68 68v1h-1l54 28v-1q17 -28 46 -45t64 -17q11 0 21.5 2t20.5 5q-21 25 -33 56t-12 66t12 66.5t33 55.5q-18 7 -42 7
q-35 0 -64.5 -17t-46.5 -47v-1l-54 28l1 1q25 44 68 70t96 26q51 0 93 -25q41 25 92 25q53 0 96.5 -26t67.5 -70q1 0 1 -1l-53 -28q0 1 -1 1q-17 30 -46.5 47t-64.5 17q-24 0 -41 -7q21 -24 33 -55.5t12 -66.5t-12 -66t-34 -56q10 -3 20.5 -5t21.5 -2q35 0 64 17t46 45l1 1
l26 -14l27 -14l-1 -1q-25 -42 -67.5 -68t-95.5 -26q-51 0 -92 25zM411 261q17 17 26.5 40t9.5 49t-9.5 49t-26.5 40q-36 -36 -36 -89q0 -26 9.5 -49t26.5 -40z" />
    <glyph glyph-name="uniF001" unicode="&#xf001;" horiz-adv-x="1113" 
d="M557 32q-39 -22 -84 -34.5t-95 -12.5t-97 13t-87.5 37t-73.5 57.5t-57 74.5q-1 0 -1 1v1l51 26l52 27q0 -1 0.5 -1t0.5 -1q33 -54 89 -86.5t123 -32.5q22 0 42 3.5t39 9.5q-42 48 -65 108t-23 128t23 128t64 108q-39 14 -80 14q-66 0 -123.5 -33.5t-91.5 -90.5v-2
l-104 54l2 2q24 42 57.5 76t74 58t87.5 37.5t98 13.5q50 0 95 -12.5t84 -35.5q38 23 83.5 35.5t94.5 12.5q51 0 98 -13.5t87.5 -37.5t74 -58t57.5 -76l2 -2l-103 -54q0 1 -1 2q-34 57 -91.5 90.5t-123.5 33.5q-41 0 -80 -14q41 -48 64 -108t23 -128t-23 -128t-65 -108
q19 -6 39 -9.5t42 -3.5q67 0 123 32.5t89 86.5l2 2l51 -27l51 -26v-1l-1 -1q-24 -41 -57 -74.5t-73.5 -57.5t-87.5 -37t-97 -13q-49 0 -94.5 12.5t-83.5 34.5zM557 177q32 34 50.5 78t18.5 95q0 50 -18.5 93.5t-50.5 77.5q-33 -34 -51.5 -77.5t-18.5 -93.5q0 -51 19 -95
t51 -78z" />
    <glyph glyph-name="uniF002" unicode="&#xf002;" horiz-adv-x="4800" 
d="M757 184q-2 -2 -2 -5q-22 -42 -54.5 -77t-72 -59.5t-85.5 -38.5t-96 -14q-72 0 -136 28.5t-112 77.5t-75.5 114.5t-27.5 140.5q0 74 27.5 139.5t75.5 114t112 77t136 28.5q50 0 96 -14t86 -38.5t72 -59.5t54 -77q2 -2 2 -3.5t2 -3.5l-17 -13t-38 -28t-39 -27.5t-18 -11.5
q-2 5 -3 5q-12 30 -31.5 54.5t-45 41.5t-56.5 26.5t-64 8.5q-44 0 -83.5 -17.5t-68.5 -47t-46 -69.5t-17 -85q0 -46 17 -86t46 -70t68.5 -47.5t83.5 -17.5q65 0 117 35.5t77 91.5q2 2 2 4t1 4zM902 700h135v-251h355v251h136v-700h-136v308h-355v-308h-135v700zM3431 0v700
h490v-141h-352v-139h326v-141h-326v-140h403v-139h-541zM4162 0v700h138v-561h380v-139h-518zM2696 0h-5h-132v700h10h181l299 -421v421h135v-700h-108l-380 528v-528zM2042 559l-119 -280h245zM1861 139l-62 -139h-162l309 700h191l312 -700h-162l-63 139h-363z" />
    <glyph glyph-name="NULL" horiz-adv-x="0" 
 />
    </font>
</defs>
</svg>
